/* XPM */
static char * menu_focused_xpm[] = {
"320 18 198 2",
"  	c None",
". 	c #020102",
"+ 	c #030304",
"@ 	c #040405",
"# 	c #050505",
"$ 	c #070708",
"% 	c #090909",
"& 	c #0A0A0A",
"* 	c #0B0A0A",
"= 	c #0D0D0D",
"- 	c #100F0F",
"; 	c #111010",
"> 	c #131212",
", 	c #151414",
"' 	c #151515",
") 	c #161616",
"! 	c #181818",
"~ 	c #1A1A1B",
"{ 	c #1B1B1C",
"] 	c #1C1C1D",
"^ 	c #1D1D1E",
"/ 	c #202020",
"( 	c #212121",
"_ 	c #222222",
": 	c #232323",
"< 	c #252625",
"[ 	c #272827",
"} 	c #282928",
"| 	c #292928",
"1 	c #2B2B2B",
"2 	c #2E2D2D",
"3 	c #2E2E2E",
"4 	c #2F2E2E",
"5 	c #313030",
"6 	c #333232",
"7 	c #333333",
"8 	c #343434",
"9 	c #363636",
"0 	c #383838",
"a 	c #393939",
"b 	c #3A3A3A",
"c 	c #3B3B3B",
"d 	c #3D3D3D",
"e 	c #3F3F3F",
"f 	c #404040",
"g 	c #414141",
"h 	c #434343",
"i 	c #454545",
"j 	c #464646",
"k 	c #484848",
"l 	c #4B4A4B",
"m 	c #4C4B4C",
"n 	c #4E4D4E",
"o 	c #505050",
"p 	c #515151",
"q 	c #525252",
"r 	c #535353",
"s 	c #555656",
"t 	c #565757",
"u 	c #575858",
"v 	c #585959",
"w 	c #5B5C5C",
"x 	c #5D5D5D",
"y 	c #5E5E5E",
"z 	c #5F5F5F",
"A 	c #616161",
"B 	c #636363",
"C 	c #646464",
"D 	c #666666",
"E 	c #696969",
"F 	c #6A6A6A",
"G 	c #6B6C6C",
"H 	c #6D6E6E",
"I 	c #6E6F6F",
"J 	c #6F7070",
"K 	c #717171",
"L 	c #737474",
"M 	c #757575",
"N 	c #767676",
"O 	c #777777",
"P 	c #797979",
"Q 	c #7B7B7B",
"R 	c #7C7C7C",
"S 	c #7F7F7F",
"T 	c #818181",
"U 	c #828282",
"V 	c #848484",
"W 	c #868686",
"X 	c #878786",
"Y 	c #888887",
"Z 	c #8A8A89",
"` 	c #8C8C8C",
" .	c #8D8D8D",
"..	c #8E8E8E",
"+.	c #8F8F8F",
"@.	c #929192",
"#.	c #939293",
"$.	c #949394",
"%.	c #959495",
"&.	c #979797",
"*.	c #999999",
"=.	c #9A9A9A",
"-.	c #9D9C9C",
";.	c #9F9E9E",
">.	c #A09F9F",
",.	c #A2A2A2",
"'.	c #A4A4A4",
").	c #A4A5A5",
"!.	c #A5A6A6",
"~.	c #A7A8A7",
"{.	c #AAAAA9",
"].	c #ABABAA",
"^.	c #ACACAB",
"/.	c #ADADAC",
"(.	c #AFAFAF",
"_.	c #B0B1B1",
":.	c #B1B2B2",
"<.	c #B2B3B3",
"[.	c #B4B5B5",
"}.	c #B6B7B7",
"|.	c #B7B8B8",
"1.	c #BABBBB",
"2.	c #BCBDBD",
"3.	c #BDBEBE",
"4.	c #BFC0C0",
"5.	c #C2C2C2",
"6.	c #C3C2C2",
"7.	c #C4C3C3",
"8.	c #C5C4C5",
"9.	c #C8C7C7",
"0.	c #C9C8C9",
"a.	c #CAC9CA",
"b.	c #CBCACB",
"c.	c #CDCCCD",
"d.	c #D0D0CF",
"e.	c #D3D3D2",
"f.	c #D5D6D5",
"g.	c #D8D8D8",
"h.	c #DBDBDB",
"i.	c #DEDEDE",
"j.	c #E1E1E1",
"k.	c #E4E4E4",
"l.	c #E7E7E7",
"m.	c #E9E9E9",
"n.	c #ECECEC",
"o.	c #EFEFEF",
"p.	c #F1F2F1",
"q.	c #F2F4F2",
"r.	c #858585",
"s.	c #838383",
"t.	c #808080",
"u.	c #7E7E7E",
"v.	c #7D7D7D",
"w.	c #7A7A7A",
"x.	c #787878",
"y.	c #757675",
"z.	c #747474",
"A.	c #737373",
"B.	c #727272",
"C.	c #707070",
"D.	c #6F6F6F",
"E.	c #6E6E6E",
"F.	c #6D6D6D",
"G.	c #6C6C6C",
"H.	c #6B6B6B",
"I.	c #686868",
"J.	c #676767",
"K.	c #656565",
"L.	c #636362",
"M.	c #626261",
"N.	c #616060",
"O.	c #606060",
"P.	c #5C5C5C",
"Q.	c #5B5B5B",
"R.	c #5A5A5A",
"S.	c #595959",
"T.	c #585858",
"U.	c #575757",
"V.	c #565656",
"W.	c #555555",
"X.	c #545454",
"Y.	c #535252",
"Z.	c #525151",
"`.	c #515050",
" +	c #505151",
".+	c #515152",
"++	c #525253",
"@+	c #626262",
"#+	c #646465",
"$+	c #666565",
"%+	c #676666",
"&+	c #767776",
"*+	c #777877",
"=+	c #797978",
"-+	c #797A79",
";+	c #7A7B7A",
">+	c #7A7B7B",
",+	c #878787",
". . + + @ # $ % & * = - - ; > , ' ) ! ~ { ] ^ / ( _ : < [ } | 1 2 3 4 5 6 7 8 9 0 a b c d e f g h i j j k l l m n o p q r s t u v w x y z A B C C D E E F G H I J K L M N O P Q R R S T T U V W X Y Z `  ...+.@.#.$.%.&.*.=.=.-.;.>.>.,.'.).!.~.{.].^./.(._.:.<.[.}.|.|.1.2.3.3.4.5.6.7.8.9.0.a.b.c.d.e.f.g.h.i.j.k.l.m.n.o.p.q.q.p.o.n.m.l.k.j.i.h.g.f.e.d.c.b.a.0.9.8.7.6.5.4.3.3.2.1.|.|.}.[.<.:._.(./.^.].{.~.!.).'.,.>.>.;.-.=.=.*.&.%.$.#.@.+... .` Z Y X W V U T T S R R Q P O N M L K J I H G F E E D C C B A z y x w v u t s r q p o n m l l k j j i h g f e d c b a 0 9 8 7 6 5 4 3 2 1 | } [ < : _ ( / ^ ] { ~ ! ) ' , > ; - - = * & % $ # @ + + . . ",
"W W W r.V s.s.U T T t.S S S u.v.v.v.R R Q Q Q Q w.w.w.P P P x.x.x.O O N N N N y.y.M M z.z.z.z.A.A.B.B.B.B.B.K K C.C.C.C.D.D.E.E.E.E.F.F.F.G.H.H.H.H.H.F F E E E E I.I.J.J.J.J.D D D K.K.K.K.K.C B B B B L.L.M.M.N.N.O.O.O.O.O.z z y y y y x x P.P.P.P.Q.Q.R.R.R.R.S.S.S.T.T.T.T.U.U.V.V.W.W.W.W.X.X.r r r r Y.Y.Y.Z.Z.p p `.`.o o  +p p p .+++++r r r r r X.X.W.W.W.W.V.V.U.U.T.T.T.T.S.S.S.R.R.R.R.Q.Q.P.P.P.P.x x y y y y z z O.O.O.O.A A A A @+@+@+@+B B B B #+K.K.K.$+%+%+%+%+J.J.J.J.I.E E E E F F F H.H.H.H.G.F.F.F.F.E.E.E.E.D.C.C.C.C.K K K B.B.B.B.A.z.z.z.z.z.M M M N N N N &+*+*+x.x.=+=+=+-+;+>+>+Q Q Q Q R R v.v.v.v.S S t.t.T T T s.s.V V W W ,+,+",
"W W W r.V s.s.U T T t.S S S u.v.v.v.R R Q Q Q Q w.w.w.P P P x.x.x.O O N N N N y.y.M M z.z.z.z.A.A.B.B.B.B.B.K K C.C.C.C.D.D.E.E.E.E.F.F.F.G.H.H.H.H.H.F F E E E E I.I.J.J.J.J.D D D K.K.K.K.K.C B B B B L.L.M.M.N.N.O.O.O.O.O.z z y y y y x x P.P.P.P.Q.Q.R.R.R.R.S.S.S.T.T.T.T.U.U.V.V.W.W.W.W.X.X.r r r r Y.Y.Y.Z.Z.p p `.`.o o  +p p p .+++++r r r r r X.X.W.W.W.W.V.V.U.U.T.T.T.T.S.S.S.R.R.R.R.Q.Q.P.P.P.P.x x y y y y z z O.O.O.O.A A A A @+@+@+@+B B B B #+K.K.K.$+%+%+%+%+J.J.J.J.I.E E E E F F F H.H.H.H.G.F.F.F.F.E.E.E.E.D.C.C.C.C.K K K B.B.B.B.A.z.z.z.z.z.M M M N N N N &+*+*+x.x.=+=+=+-+;+>+>+Q Q Q Q R R v.v.v.v.S S t.t.T T T s.s.V V W W ,+,+",
"W W W r.V s.s.U T T t.S S S u.v.v.v.R R Q Q Q Q w.w.w.P P P x.x.x.O O N N N N y.y.M M z.z.z.z.A.A.B.B.B.B.B.K K C.C.C.C.D.D.E.E.E.E.F.F.F.G.H.H.H.H.H.F F E E E E I.I.J.J.J.J.D D D K.K.K.K.K.C B B B B L.L.M.M.N.N.O.O.O.O.O.z z y y y y x x P.P.P.P.Q.Q.R.R.R.R.S.S.S.T.T.T.T.U.U.V.V.W.W.W.W.X.X.r r r r Y.Y.Y.Z.Z.p p `.`.o o  +p p p .+++++r r r r r X.X.W.W.W.W.V.V.U.U.T.T.T.T.S.S.S.R.R.R.R.Q.Q.P.P.P.P.x x y y y y z z O.O.O.O.A A A A @+@+@+@+B B B B #+K.K.K.$+%+%+%+%+J.J.J.J.I.E E E E F F F H.H.H.H.G.F.F.F.F.E.E.E.E.D.C.C.C.C.K K K B.B.B.B.A.z.z.z.z.z.M M M N N N N &+*+*+x.x.=+=+=+-+;+>+>+Q Q Q Q R R v.v.v.v.S S t.t.T T T s.s.V V W W ,+,+",
"W W W r.V s.s.U T T t.S S S u.v.v.v.R R Q Q Q Q w.w.w.P P P x.x.x.O O N N N N y.y.M M z.z.z.z.A.A.B.B.B.B.B.K K C.C.C.C.D.D.E.E.E.E.F.F.F.G.H.H.H.H.H.F F E E E E I.I.J.J.J.J.D D D K.K.K.K.K.C B B B B L.L.M.M.N.N.O.O.O.O.O.z z y y y y x x P.P.P.P.Q.Q.R.R.R.R.S.S.S.T.T.T.T.U.U.V.V.W.W.W.W.X.X.r r r r Y.Y.Y.Z.Z.p p `.`.o o  +p p p .+++++r r r r r X.X.W.W.W.W.V.V.U.U.T.T.T.T.S.S.S.R.R.R.R.Q.Q.P.P.P.P.x x y y y y z z O.O.O.O.A A A A @+@+@+@+B B B B #+K.K.K.$+%+%+%+%+J.J.J.J.I.E E E E F F F H.H.H.H.G.F.F.F.F.E.E.E.E.D.C.C.C.C.K K K B.B.B.B.A.z.z.z.z.z.M M M N N N N &+*+*+x.x.=+=+=+-+;+>+>+Q Q Q Q R R v.v.v.v.S S t.t.T T T s.s.V V W W ,+,+",
"W W W r.V s.s.U T T t.S S S u.v.v.v.R R Q Q Q Q w.w.w.P P P x.x.x.O O N N N N y.y.M M z.z.z.z.A.A.B.B.B.B.B.K K C.C.C.C.D.D.E.E.E.E.F.F.F.G.H.H.H.H.H.F F E E E E I.I.J.J.J.J.D D D K.K.K.K.K.C B B B B L.L.M.M.N.N.O.O.O.O.O.z z y y y y x x P.P.P.P.Q.Q.R.R.R.R.S.S.S.T.T.T.T.U.U.V.V.W.W.W.W.X.X.r r r r Y.Y.Y.Z.Z.p p `.`.o o  +p p p .+++++r r r r r X.X.W.W.W.W.V.V.U.U.T.T.T.T.S.S.S.R.R.R.R.Q.Q.P.P.P.P.x x y y y y z z O.O.O.O.A A A A @+@+@+@+B B B B #+K.K.K.$+%+%+%+%+J.J.J.J.I.E E E E F F F H.H.H.H.G.F.F.F.F.E.E.E.E.D.C.C.C.C.K K K B.B.B.B.A.z.z.z.z.z.M M M N N N N &+*+*+x.x.=+=+=+-+;+>+>+Q Q Q Q R R v.v.v.v.S S t.t.T T T s.s.V V W W ,+,+",
"W W W r.V s.s.U T T t.S S S u.v.v.v.R R Q Q Q Q w.w.w.P P P x.x.x.O O N N N N y.y.M M z.z.z.z.A.A.B.B.B.B.B.K K C.C.C.C.D.D.E.E.E.E.F.F.F.G.H.H.H.H.H.F F E E E E I.I.J.J.J.J.D D D K.K.K.K.K.C B B B B L.L.M.M.N.N.O.O.O.O.O.z z y y y y x x P.P.P.P.Q.Q.R.R.R.R.S.S.S.T.T.T.T.U.U.V.V.W.W.W.W.X.X.r r r r Y.Y.Y.Z.Z.p p `.`.o o  +p p p .+++++r r r r r X.X.W.W.W.W.V.V.U.U.T.T.T.T.S.S.S.R.R.R.R.Q.Q.P.P.P.P.x x y y y y z z O.O.O.O.A A A A @+@+@+@+B B B B #+K.K.K.$+%+%+%+%+J.J.J.J.I.E E E E F F F H.H.H.H.G.F.F.F.F.E.E.E.E.D.C.C.C.C.K K K B.B.B.B.A.z.z.z.z.z.M M M N N N N &+*+*+x.x.=+=+=+-+;+>+>+Q Q Q Q R R v.v.v.v.S S t.t.T T T s.s.V V W W ,+,+",
"W W W r.V s.s.U T T t.S S S u.v.v.v.R R Q Q Q Q w.w.w.P P P x.x.x.O O N N N N y.y.M M z.z.z.z.A.A.B.B.B.B.B.K K C.C.C.C.D.D.E.E.E.E.F.F.F.G.H.H.H.H.H.F F E E E E I.I.J.J.J.J.D D D K.K.K.K.K.C B B B B L.L.M.M.N.N.O.O.O.O.O.z z y y y y x x P.P.P.P.Q.Q.R.R.R.R.S.S.S.T.T.T.T.U.U.V.V.W.W.W.W.X.X.r r r r Y.Y.Y.Z.Z.p p `.`.o o  +p p p .+++++r r r r r X.X.W.W.W.W.V.V.U.U.T.T.T.T.S.S.S.R.R.R.R.Q.Q.P.P.P.P.x x y y y y z z O.O.O.O.A A A A @+@+@+@+B B B B #+K.K.K.$+%+%+%+%+J.J.J.J.I.E E E E F F F H.H.H.H.G.F.F.F.F.E.E.E.E.D.C.C.C.C.K K K B.B.B.B.A.z.z.z.z.z.M M M N N N N &+*+*+x.x.=+=+=+-+;+>+>+Q Q Q Q R R v.v.v.v.S S t.t.T T T s.s.V V W W ,+,+",
"W W W r.V s.s.U T T t.S S S u.v.v.v.R R Q Q Q Q w.w.w.P P P x.x.x.O O N N N N y.y.M M z.z.z.z.A.A.B.B.B.B.B.K K C.C.C.C.D.D.E.E.E.E.F.F.F.G.H.H.H.H.H.F F E E E E I.I.J.J.J.J.D D D K.K.K.K.K.C B B B B L.L.M.M.N.N.O.O.O.O.O.z z y y y y x x P.P.P.P.Q.Q.R.R.R.R.S.S.S.T.T.T.T.U.U.V.V.W.W.W.W.X.X.r r r r Y.Y.Y.Z.Z.p p `.`.o o  +p p p .+++++r r r r r X.X.W.W.W.W.V.V.U.U.T.T.T.T.S.S.S.R.R.R.R.Q.Q.P.P.P.P.x x y y y y z z O.O.O.O.A A A A @+@+@+@+B B B B #+K.K.K.$+%+%+%+%+J.J.J.J.I.E E E E F F F H.H.H.H.G.F.F.F.F.E.E.E.E.D.C.C.C.C.K K K B.B.B.B.A.z.z.z.z.z.M M M N N N N &+*+*+x.x.=+=+=+-+;+>+>+Q Q Q Q R R v.v.v.v.S S t.t.T T T s.s.V V W W ,+,+",
"W W W r.V s.s.U T T t.S S S u.v.v.v.R R Q Q Q Q w.w.w.P P P x.x.x.O O N N N N y.y.M M z.z.z.z.A.A.B.B.B.B.B.K K C.C.C.C.D.D.E.E.E.E.F.F.F.G.H.H.H.H.H.F F E E E E I.I.J.J.J.J.D D D K.K.K.K.K.C B B B B L.L.M.M.N.N.O.O.O.O.O.z z y y y y x x P.P.P.P.Q.Q.R.R.R.R.S.S.S.T.T.T.T.U.U.V.V.W.W.W.W.X.X.r r r r Y.Y.Y.Z.Z.p p `.`.o o  +p p p .+++++r r r r r X.X.W.W.W.W.V.V.U.U.T.T.T.T.S.S.S.R.R.R.R.Q.Q.P.P.P.P.x x y y y y z z O.O.O.O.A A A A @+@+@+@+B B B B #+K.K.K.$+%+%+%+%+J.J.J.J.I.E E E E F F F H.H.H.H.G.F.F.F.F.E.E.E.E.D.C.C.C.C.K K K B.B.B.B.A.z.z.z.z.z.M M M N N N N &+*+*+x.x.=+=+=+-+;+>+>+Q Q Q Q R R v.v.v.v.S S t.t.T T T s.s.V V W W ,+,+",
"W W W r.V s.s.U T T t.S S S u.v.v.v.R R Q Q Q Q w.w.w.P P P x.x.x.O O N N N N y.y.M M z.z.z.z.A.A.B.B.B.B.B.K K C.C.C.C.D.D.E.E.E.E.F.F.F.G.H.H.H.H.H.F F E E E E I.I.J.J.J.J.D D D K.K.K.K.K.C B B B B L.L.M.M.N.N.O.O.O.O.O.z z y y y y x x P.P.P.P.Q.Q.R.R.R.R.S.S.S.T.T.T.T.U.U.V.V.W.W.W.W.X.X.r r r r Y.Y.Y.Z.Z.p p `.`.o o  +p p p .+++++r r r r r X.X.W.W.W.W.V.V.U.U.T.T.T.T.S.S.S.R.R.R.R.Q.Q.P.P.P.P.x x y y y y z z O.O.O.O.A A A A @+@+@+@+B B B B #+K.K.K.$+%+%+%+%+J.J.J.J.I.E E E E F F F H.H.H.H.G.F.F.F.F.E.E.E.E.D.C.C.C.C.K K K B.B.B.B.A.z.z.z.z.z.M M M N N N N &+*+*+x.x.=+=+=+-+;+>+>+Q Q Q Q R R v.v.v.v.S S t.t.T T T s.s.V V W W ,+,+",
"W W W r.V s.s.U T T t.S S S u.v.v.v.R R Q Q Q Q w.w.w.P P P x.x.x.O O N N N N y.y.M M z.z.z.z.A.A.B.B.B.B.B.K K C.C.C.C.D.D.E.E.E.E.F.F.F.G.H.H.H.H.H.F F E E E E I.I.J.J.J.J.D D D K.K.K.K.K.C B B B B L.L.M.M.N.N.O.O.O.O.O.z z y y y y x x P.P.P.P.Q.Q.R.R.R.R.S.S.S.T.T.T.T.U.U.V.V.W.W.W.W.X.X.r r r r Y.Y.Y.Z.Z.p p `.`.o o  +p p p .+++++r r r r r X.X.W.W.W.W.V.V.U.U.T.T.T.T.S.S.S.R.R.R.R.Q.Q.P.P.P.P.x x y y y y z z O.O.O.O.A A A A @+@+@+@+B B B B #+K.K.K.$+%+%+%+%+J.J.J.J.I.E E E E F F F H.H.H.H.G.F.F.F.F.E.E.E.E.D.C.C.C.C.K K K B.B.B.B.A.z.z.z.z.z.M M M N N N N &+*+*+x.x.=+=+=+-+;+>+>+Q Q Q Q R R v.v.v.v.S S t.t.T T T s.s.V V W W ,+,+",
"W W W r.V s.s.U T T t.S S S u.v.v.v.R R Q Q Q Q w.w.w.P P P x.x.x.O O N N N N y.y.M M z.z.z.z.A.A.B.B.B.B.B.K K C.C.C.C.D.D.E.E.E.E.F.F.F.G.H.H.H.H.H.F F E E E E I.I.J.J.J.J.D D D K.K.K.K.K.C B B B B L.L.M.M.N.N.O.O.O.O.O.z z y y y y x x P.P.P.P.Q.Q.R.R.R.R.S.S.S.T.T.T.T.U.U.V.V.W.W.W.W.X.X.r r r r Y.Y.Y.Z.Z.p p `.`.o o  +p p p .+++++r r r r r X.X.W.W.W.W.V.V.U.U.T.T.T.T.S.S.S.R.R.R.R.Q.Q.P.P.P.P.x x y y y y z z O.O.O.O.A A A A @+@+@+@+B B B B #+K.K.K.$+%+%+%+%+J.J.J.J.I.E E E E F F F H.H.H.H.G.F.F.F.F.E.E.E.E.D.C.C.C.C.K K K B.B.B.B.A.z.z.z.z.z.M M M N N N N &+*+*+x.x.=+=+=+-+;+>+>+Q Q Q Q R R v.v.v.v.S S t.t.T T T s.s.V V W W ,+,+",
"W W W r.V s.s.U T T t.S S S u.v.v.v.R R Q Q Q Q w.w.w.P P P x.x.x.O O N N N N y.y.M M z.z.z.z.A.A.B.B.B.B.B.K K C.C.C.C.D.D.E.E.E.E.F.F.F.G.H.H.H.H.H.F F E E E E I.I.J.J.J.J.D D D K.K.K.K.K.C B B B B L.L.M.M.N.N.O.O.O.O.O.z z y y y y x x P.P.P.P.Q.Q.R.R.R.R.S.S.S.T.T.T.T.U.U.V.V.W.W.W.W.X.X.r r r r Y.Y.Y.Z.Z.p p `.`.o o  +p p p .+++++r r r r r X.X.W.W.W.W.V.V.U.U.T.T.T.T.S.S.S.R.R.R.R.Q.Q.P.P.P.P.x x y y y y z z O.O.O.O.A A A A @+@+@+@+B B B B #+K.K.K.$+%+%+%+%+J.J.J.J.I.E E E E F F F H.H.H.H.G.F.F.F.F.E.E.E.E.D.C.C.C.C.K K K B.B.B.B.A.z.z.z.z.z.M M M N N N N &+*+*+x.x.=+=+=+-+;+>+>+Q Q Q Q R R v.v.v.v.S S t.t.T T T s.s.V V W W ,+,+",
"W W W r.V s.s.U T T t.S S S u.v.v.v.R R Q Q Q Q w.w.w.P P P x.x.x.O O N N N N y.y.M M z.z.z.z.A.A.B.B.B.B.B.K K C.C.C.C.D.D.E.E.E.E.F.F.F.G.H.H.H.H.H.F F E E E E I.I.J.J.J.J.D D D K.K.K.K.K.C B B B B L.L.M.M.N.N.O.O.O.O.O.z z y y y y x x P.P.P.P.Q.Q.R.R.R.R.S.S.S.T.T.T.T.U.U.V.V.W.W.W.W.X.X.r r r r Y.Y.Y.Z.Z.p p `.`.o o  +p p p .+++++r r r r r X.X.W.W.W.W.V.V.U.U.T.T.T.T.S.S.S.R.R.R.R.Q.Q.P.P.P.P.x x y y y y z z O.O.O.O.A A A A @+@+@+@+B B B B #+K.K.K.$+%+%+%+%+J.J.J.J.I.E E E E F F F H.H.H.H.G.F.F.F.F.E.E.E.E.D.C.C.C.C.K K K B.B.B.B.A.z.z.z.z.z.M M M N N N N &+*+*+x.x.=+=+=+-+;+>+>+Q Q Q Q R R v.v.v.v.S S t.t.T T T s.s.V V W W ,+,+",
"W W W r.V s.s.U T T t.S S S u.v.v.v.R R Q Q Q Q w.w.w.P P P x.x.x.O O N N N N y.y.M M z.z.z.z.A.A.B.B.B.B.B.K K C.C.C.C.D.D.E.E.E.E.F.F.F.G.H.H.H.H.H.F F E E E E I.I.J.J.J.J.D D D K.K.K.K.K.C B B B B L.L.M.M.N.N.O.O.O.O.O.z z y y y y x x P.P.P.P.Q.Q.R.R.R.R.S.S.S.T.T.T.T.U.U.V.V.W.W.W.W.X.X.r r r r Y.Y.Y.Z.Z.p p `.`.o o  +p p p .+++++r r r r r X.X.W.W.W.W.V.V.U.U.T.T.T.T.S.S.S.R.R.R.R.Q.Q.P.P.P.P.x x y y y y z z O.O.O.O.A A A A @+@+@+@+B B B B #+K.K.K.$+%+%+%+%+J.J.J.J.I.E E E E F F F H.H.H.H.G.F.F.F.F.E.E.E.E.D.C.C.C.C.K K K B.B.B.B.A.z.z.z.z.z.M M M N N N N &+*+*+x.x.=+=+=+-+;+>+>+Q Q Q Q R R v.v.v.v.S S t.t.T T T s.s.V V W W ,+,+",
"W W W r.V s.s.U T T t.S S S u.v.v.v.R R Q Q Q Q w.w.w.P P P x.x.x.O O N N N N y.y.M M z.z.z.z.A.A.B.B.B.B.B.K K C.C.C.C.D.D.E.E.E.E.F.F.F.G.H.H.H.H.H.F F E E E E I.I.J.J.J.J.D D D K.K.K.K.K.C B B B B L.L.M.M.N.N.O.O.O.O.O.z z y y y y x x P.P.P.P.Q.Q.R.R.R.R.S.S.S.T.T.T.T.U.U.V.V.W.W.W.W.X.X.r r r r Y.Y.Y.Z.Z.p p `.`.o o  +p p p .+++++r r r r r X.X.W.W.W.W.V.V.U.U.T.T.T.T.S.S.S.R.R.R.R.Q.Q.P.P.P.P.x x y y y y z z O.O.O.O.A A A A @+@+@+@+B B B B #+K.K.K.$+%+%+%+%+J.J.J.J.I.E E E E F F F H.H.H.H.G.F.F.F.F.E.E.E.E.D.C.C.C.C.K K K B.B.B.B.A.z.z.z.z.z.M M M N N N N &+*+*+x.x.=+=+=+-+;+>+>+Q Q Q Q R R v.v.v.v.S S t.t.T T T s.s.V V W W ,+,+",
". . + + @ # $ % & * = - - ; > , ' ) ! ~ { ] ^ / ( _ : < [ } | 1 2 3 4 5 6 7 8 9 0 a b c d e f g h i j j k l l m n o p q r s t u v w x y z A B C C D E E F G H I J K L M N O P Q R R S T T U V W X Y Z `  ...+.@.#.$.%.&.*.=.=.-.;.>.>.,.'.).!.~.{.].^./.(._.:.<.[.}.|.|.1.2.3.3.4.5.6.7.8.9.0.a.b.c.d.e.f.g.h.i.j.k.l.m.n.o.p.q.q.p.o.n.m.l.k.j.i.h.g.f.e.d.c.b.a.0.9.8.7.6.5.4.3.3.2.1.|.|.}.[.<.:._.(./.^.].{.~.!.).'.,.>.>.;.-.=.=.*.&.%.$.#.@.+... .` Z Y X W V U T T S R R Q P O N M L K J I H G F E E D C C B A z y x w v u t s r q p o n m l l k j j i h g f e d c b a 0 9 8 7 6 5 4 3 2 1 | } [ < : _ ( / ^ ] { ~ ! ) ' , > ; - - = * & % $ # @ + + . . "};
