/* XPM */
static char * window_close_unfocused_xpm[] = {
"18 18 79 1",
" 	c None",
".	c #C6C6C6",
"+	c #A6A6A6",
"@	c #888888",
"#	c #676767",
"$	c #3C3C3C",
"%	c #1C1C1C",
"&	c #0B0B0B",
"*	c #6A6A6A",
"=	c #474747",
"-	c #111111",
";	c #202020",
">	c #302E2E",
",	c #2E2C2E",
"'	c #2E2E2C",
")	c #2F2E2E",
"!	c #202022",
"~	c #111010",
"{	c #464746",
"]	c #000000",
"^	c #121211",
"/	c #2C2A2A",
"(	c #2C2A2C",
"_	c #222222",
":	c #1B1C1C",
"<	c #222220",
"[	c #2C2C2A",
"}	c #121210",
"|	c #0F0F0F",
"1	c #2A2828",
"2	c #262525",
"3	c #1A1A1A",
"4	c #1A1B1A",
"5	c #1B1A1A",
"6	c #1B1B1B",
"7	c #1A1A19",
"8	c #100F10",
"9	c #282828",
"0	c #1B1B1C",
"a	c #1C1B1B",
"b	c #1B1B19",
"c	c #0B0B0A",
"d	c #252323",
"e	c #222223",
"f	c #1C1D1C",
"g	c #1D1C1C",
"h	c #1C1C1E",
"i	c #222022",
"j	c #232323",
"k	c #282628",
"l	c #201F1F",
"m	c #262625",
"n	c #080808",
"o	c #070806",
"p	c #232322",
"q	c #222020",
"r	c #222023",
"s	c #070707",
"t	c #1C1A1B",
"u	c #222322",
"v	c #232223",
"w	c #1A1B1C",
"x	c #252525",
"y	c #252325",
"z	c #020202",
"A	c #161515",
"B	c #282626",
"C	c #151515",
"D	c #050505",
"E	c #0A0A0A",
"F	c #141414",
"G	c #1E1D1E",
"H	c #1E1E1E",
"I	c #131313",
"J	c #0D0D0D",
"K	c #121212",
"L	c #060606",
"M	c #040404",
"N	c #2C2C2C",
"..................",
"++++++++++++++++++",
"@@@@@#$%&&%$#@@@@@",
"****=-;>,')!~{****",
"]]]]^/(_%:</[}]]]]",
"]]]|12343567218]]]",
"]]|%90a6ba6609%]]]",
"]]cde%fgh%%f%ij&]]",
"]]|klllllllll;mn]]",
"]]opiqqqqqqqqrjs]]",
"]]otujpjjjppjvwn]]",
"]]s-;xxxxyxxx;-s]]",
"]]znA;9kB9k9_Cnz]]",
"]]]DEFGjkBjHIED]]]",
"]]]]DsJKCCKJsD]]]]",
"]]]]]zLDMMDLz]]]]]",
"FFFFFFFFFFFFFFFFFF",
"NNNNNNNNNNNNNNNNNN"};
