/* XPM */
static char * window_bar_unfocused_xpm[] = {
"1 18 8 1",
" 	c None",
".	c #C6C6C6",
"+	c #A6A6A6",
"@	c #888888",
"#	c #6A6A6A",
"$	c #000000",
"%	c #141414",
"&	c #2C2C2C",
".",
"+",
"@",
"#",
"$",
"$",
"$",
"$",
"$",
"$",
"$",
"$",
"$",
"$",
"$",
"$",
"%",
"&"};
