/* XPM */
static char * window_stick_unfocused_xpm[] = {
"18 18 92 2",
"  	c None",
". 	c #C6C6C6",
"+ 	c #A6A6A6",
"@ 	c #888888",
"# 	c #696969",
"$ 	c #444444",
"% 	c #282828",
"& 	c #191919",
"* 	c #686868",
"= 	c #6A6A6A",
"- 	c #4D4D4D",
"; 	c #202020",
"> 	c #313131",
", 	c #3E3D3D",
"' 	c #3D3B3D",
") 	c #3D3D3B",
"! 	c #3D3D3D",
"~ 	c #313133",
"{ 	c #201F1F",
"] 	c #4C4D4D",
"^ 	c #000000",
"/ 	c #232321",
"( 	c #3B3A3A",
"_ 	c #3B3A3B",
": 	c #333333",
"< 	c #2D2D2D",
"[ 	c #2C2D2D",
"} 	c #333331",
"| 	c #3B3B3A",
"1 	c #232320",
"2 	c #1D1D1D",
"3 	c #393838",
"4 	c #363635",
"5 	c #2B2B2B",
"6 	c #2B2C2B",
"7 	c #2C2B2B",
"8 	c #2C2C2C",
"9 	c #2B2B2A",
"0 	c #363636",
"a 	c #3A3838",
"b 	c #1E1D1F",
"c 	c #171717",
"d 	c #373737",
"e 	c #2C2C2E",
"f 	c #2E2C2C",
"g 	c #2C2C2A",
"h 	c #2D2C2C",
"i 	c #2C2C2D",
"j 	c #373738",
"k 	c #353434",
"l 	c #333334",
"m 	c #2E2E2D",
"n 	c #2D2F2D",
"o 	c #2F2D2E",
"p 	c #2E2E2F",
"q 	c #2E2E2E",
"r 	c #2E2F2E",
"s 	c #333133",
"t 	c #343434",
"u 	c #141414",
"v 	c #373637",
"w 	c #313030",
"x 	c #131412",
"y 	c #343433",
"z 	c #333131",
"A 	c #333134",
"B 	c #121412",
"C 	c #2D2B2C",
"D 	c #333433",
"E 	c #343334",
"F 	c #2B2C2D",
"G 	c #131313",
"H 	c #0F0F0F",
"I 	c #212121",
"J 	c #363535",
"K 	c #363536",
"L 	c #353435",
"M 	c #101010",
"N 	c #040404",
"O 	c #282727",
"P 	c #383737",
"Q 	c #373636",
"R 	c #272727",
"S 	c #161616",
"T 	c #0B0B0B",
"U 	c #181818",
"V 	c #252525",
"W 	c #2F2F2F",
"X 	c #1C1C1C",
"Y 	c #232323",
"Z 	c #0E0E0E",
"` 	c #0D0D0D",
". . . . . . . . . . . . . . . . . . ",
"+ + + + + + + + + + + + + + + + + + ",
"@ @ @ @ @ # $ % & & % $ * @ @ @ @ @ ",
"= = = = - ; > , ' ) ! ~ { ] = = = = ",
"^ ^ ^ ^ / ( _ : < [ } ( | 1 ^ ^ ^ ^ ",
"^ ^ ^ 2 3 4 5 6 5 7 8 9 0 a b ^ ^ ^ ",
"^ ^ c < d e f 8 g h 8 8 i j < c ^ ^ ",
"^ ^ c k l m n o p q m r q s t c ^ ^ ",
"^ ^ u v w w w w w w w w w > 0 u ^ ^ ",
"^ ^ x y s z z z z z z z z A t u ^ ^ ",
"^ ^ B C D t y t t t y y t E F G ^ ^ ",
"^ ^ H I > J J K K L K J J > I M ^ ^ ",
"^ ^ N u O > P v Q P v P : R S N ^ ^ ",
"^ ^ ^ T U V W t v Q t W V U T ^ ^ ^ ",
"^ ^ ^ ^ T u X Y R R Y X G T ^ ^ ^ ^ ",
"^ ^ ^ ^ ^ N Z Z Z H H ` N ^ ^ ^ ^ ^ ",
"u u u u u u u u u u u u u u u u u u ",
"8 8 8 8 8 8 8 8 8 8 8 8 8 8 8 8 8 8 "};
