/* XPM */
static char * window_stick_focused_xpm[] = {
"18 18 111 2",
"  	c None",
". 	c #C6C6C6",
"+ 	c #A6A6A6",
"@ 	c #888888",
"# 	c #656565",
"$ 	c #393939",
"% 	c #232323",
"& 	c #676767",
"* 	c #6A6A6A",
"= 	c #2E2E2E",
"- 	c #454545",
"; 	c #585656",
"> 	c #565456",
", 	c #565653",
"' 	c #575656",
") 	c #464548",
"! 	c #333232",
"~ 	c #000000",
"{ 	c #32322F",
"] 	c #535252",
"^ 	c #535253",
"/ 	c #484848",
"( 	c #404040",
"_ 	c #3F4040",
": 	c #484846",
"< 	c #535352",
"[ 	c #32312E",
"} 	c #292929",
"| 	c #515050",
"1 	c #4D4C4B",
"2 	c #3D3D3D",
"3 	c #3D3F3D",
"4 	c #3F3D3D",
"5 	c #3F3F3F",
"6 	c #3D3D3C",
"7 	c #4D4C4C",
"8 	c #525050",
"9 	c #2B292C",
"0 	c #202020",
"a 	c #4E4E4E",
"b 	c #3F3F41",
"c 	c #413F3F",
"d 	c #3F3F3C",
"e 	c #403F3F",
"f 	c #3F3F40",
"g 	c #4E4E50",
"h 	c #20201F",
"i 	c #4B4A4A",
"j 	c #484849",
"k 	c #414140",
"l 	c #404240",
"m 	c #424041",
"n 	c #414143",
"o 	c #414141",
"p 	c #414241",
"q 	c #484648",
"r 	c #4A4A4A",
"s 	c #1C1C1C",
"t 	c #4E4D4E",
"u 	c #454444",
"v 	c #4D4D4C",
"w 	c #1D1D1D",
"x 	c #1B1D1A",
"y 	c #494948",
"z 	c #484646",
"A 	c #484649",
"B 	c #4A4949",
"C 	c #1A1C19",
"D 	c #403D3F",
"E 	c #484948",
"F 	c #49494A",
"G 	c #4A494A",
"H 	c #494949",
"I 	c #4A484A",
"J 	c #3D3F40",
"K 	c #1B1B1B",
"L 	c #000022",
"M 	c #151515",
"N 	c #2F2F2F",
"O 	c #464545",
"P 	c #4C4B4B",
"Q 	c #4C4B4C",
"R 	c #4B4A4B",
"S 	c #161616",
"T 	c #00093D",
"U 	c #0B0E19",
"V 	c #383737",
"W 	c #464546",
"X 	c #504E4E",
"Y 	c #4E4D4D",
"Z 	c #373737",
"` 	c #1F1F1F",
" .	c #001554",
"..	c #101010",
"+.	c #222222",
"@.	c #353535",
"#.	c #434243",
"$.	c #434343",
"%.	c #343434",
"&.	c #00236D",
"*.	c #282828",
"=.	c #323232",
"-.	c #00348B",
";.	c #272C46",
">.	c #1C202F",
",.	c #1D1E27",
"'.	c #1D1E26",
").	c #1C1F2D",
"!.	c #262C48",
"~.	c #0048B4",
"{.	c #0059D9",
". . . . . . . . . . . . . . . . . . ",
"+ + + + + + + + + + + + + + + + + + ",
"@ @ @ @ @ @ # $ % % $ & @ @ @ @ @ @ ",
"* * * * * = - ; > , ' ) ! * * * * * ",
"~ ~ ~ ~ { ] ^ / ( _ : ] < [ ~ ~ ~ ~ ",
"~ ~ ~ } | 1 2 3 2 4 5 6 7 8 9 ~ ~ ~ ",
"~ ~ 0 ( a b c 5 d e 5 5 f g ( 0 ~ ~ ",
"~ ~ h i j k l m n o k p o q r 0 ~ ~ ",
"~ ~ s t u u u u u u u u u - v w ~ ~ ",
"~ ~ x y q z z z z z z z z A B s ~ ~ ",
"~ ~ C D E B y r F G y y H I J K ~ ~ ",
"L L M N O P P Q Q R Q P P - N S L L ",
"T T U w V W X t Y X t X / Z ` U T T ",
" . . ...+.@.#.B t Y H $.%.+... . . .",
"&.&.&.&...s *.=.Z Z =.*.K &.&.&.&.&.",
"-.-.-.-.-.-.;.>.,.'.).!.-.-.-.-.-.-.",
"~.~.~.~.~.~.~.~.~.~.~.~.~.~.~.~.~.~.",
"{.{.{.{.{.{.{.{.{.{.{.{.{.{.{.{.{.{."};
