/* XPM */
static char * window_close_focused_xpm[] = {
"18 18 108 2",
"  	c None",
". 	c #C6C6C6",
"+ 	c #A6A6A6",
"@ 	c #9C9C9C",
"# 	c #939393",
"$ 	c #959595",
"% 	c #999999",
"& 	c #888888",
"* 	c #898989",
"= 	c #6A6A6A",
"- 	c #282828",
"; 	c #101010",
"> 	c #5E5E5E",
", 	c #181818",
"' 	c #2D2D2D",
") 	c #444141",
"! 	c #413F41",
"~ 	c #41413E",
"{ 	c #424141",
"] 	c #2E2D30",
"^ 	c #191A19",
"/ 	c #000000",
"( 	c #1A1A18",
"_ 	c #3E3C3C",
": 	c #3E3C3E",
"< 	c #303030",
"[ 	c #272727",
"} 	c #262727",
"| 	c #30302E",
"1 	c #3E3E3C",
"2 	c #020202",
"3 	c #151515",
"4 	c #3B3939",
"5 	c #363534",
"6 	c #252525",
"7 	c #252625",
"8 	c #262525",
"9 	c #262626",
"0 	c #252524",
"a 	c #363535",
"b 	c #3C3939",
"c 	c #0A0A0A",
"d 	c #383838",
"e 	c #262628",
"f 	c #282626",
"g 	c #262624",
"h 	c #272626",
"i 	c #262627",
"j 	c #383839",
"k 	c #343232",
"l 	c #303031",
"m 	c #282827",
"n 	c #272927",
"o 	c #292728",
"p 	c #28282B",
"q 	c #282928",
"r 	c #302E30",
"s 	c #323232",
"t 	c #383638",
"u 	c #2D2C2C",
"v 	c #363635",
"w 	c #0A0B09",
"x 	c #313130",
"y 	c #302E2E",
"z 	c #302E31",
"A 	c #323131",
"B 	c #272526",
"C 	c #303130",
"D 	c #313132",
"E 	c #323132",
"F 	c #313131",
"G 	c #323032",
"H 	c #252627",
"I 	c #000022",
"J 	c #2E2D2D",
"K 	c #353434",
"L 	c #353435",
"M 	c #343234",
"N 	c #00093D",
"O 	c #0B0B0B",
"P 	c #1F1E1E",
"Q 	c #2E2D2E",
"R 	c #393838",
"S 	c #383636",
"T 	c #1E1E1E",
"U 	c #0C0C0C",
"V 	c #001554",
"W 	c #071236",
"X 	c #0E0E0E",
"Y 	c #1C1C1C",
"Z 	c #2B292B",
"` 	c #2B2B2B",
" .	c #1B1B1B",
"..	c #00236D",
"+.	c #0A0F1F",
"@.	c #121212",
"#.	c #1A1A1A",
"$.	c #121316",
"%.	c #111B40",
"&.	c #00348B",
"*.	c #092D71",
"=.	c #092869",
"-.	c #0A225A",
";.	c #0B2461",
">.	c #09296E",
",.	c #08307C",
"'.	c #0048B4",
").	c #0059D9",
". . . . . . . . . . . . . . . . . . ",
"+ + + + + + + @ # $ % + + + + + + + ",
"& & & & & * = - ; ; - > & & & & & & ",
"= = = = = , ' ) ! ~ { ] ^ = = = = = ",
"/ / / / ( _ : < [ } | _ 1 ^ / / / / ",
"/ / 2 3 4 5 6 7 6 8 9 0 a b ^ / / / ",
"/ / c [ d e f 9 g h 9 9 i j ^ c / / ",
"/ / c k l m n o p - m q - r s c / / ",
"/ / c t u u u u u u u u u ' v c / / ",
"/ / w x r y y y y y y y y z A c / / ",
"/ / w B C A x s D E x x F G H c / / ",
"I I I , J K K L L M L K K ' , I I I ",
"N N N O P Q R t S R t R < T U N N N ",
"V V V W X Y Z A t S F `  .X V V V V ",
"........W +.@.#.T T #.$.%...........",
"&.&.&.&.&.&.*.=.-.;.>.,.&.&.&.&.&.&.",
"'.'.'.'.'.'.'.'.'.'.'.'.'.'.'.'.'.'.",
").).).).).).).).).).).).).).).).).)."};
