/* XPM */
static char * window_other_focused_xpm[] = {
"18 18 100 2",
"  	c None",
". 	c #C6C6C6",
"+ 	c #A6A6A6",
"@ 	c #888888",
"# 	c #7C7C7C",
"$ 	c #393939",
"% 	c #232323",
"& 	c #7A7A7A",
"* 	c #6A6A6A",
"= 	c #313131",
"- 	c #454545",
"; 	c #585656",
"> 	c #565456",
", 	c #565653",
"' 	c #575656",
") 	c #464548",
"! 	c #2D2C2C",
"~ 	c #000000",
"{ 	c #3E3E3D",
"] 	c #535252",
"^ 	c #535253",
"/ 	c #484848",
"( 	c #404040",
"_ 	c #3F4040",
": 	c #484846",
"< 	c #535352",
"[ 	c #3E3D3C",
"} 	c #020202",
"| 	c #292929",
"1 	c #515050",
"2 	c #4D4C4B",
"3 	c #3D3D3D",
"4 	c #3D3F3D",
"5 	c #3F3D3D",
"6 	c #3F3F3F",
"7 	c #3D3D3C",
"8 	c #4D4C4C",
"9 	c #525050",
"0 	c #2B292C",
"a 	c #0A0A0A",
"b 	c #4E4E4E",
"c 	c #3F3F41",
"d 	c #413F3F",
"e 	c #3F3F3C",
"f 	c #403F3F",
"g 	c #3F3F40",
"h 	c #4E4E50",
"i 	c #4B4A4A",
"j 	c #484849",
"k 	c #414140",
"l 	c #404240",
"m 	c #424041",
"n 	c #414143",
"o 	c #414141",
"p 	c #414241",
"q 	c #484648",
"r 	c #4A4A4A",
"s 	c #4E4D4E",
"t 	c #454444",
"u 	c #4D4D4C",
"v 	c #494948",
"w 	c #484646",
"x 	c #484649",
"y 	c #4A4949",
"z 	c #403D3F",
"A 	c #484948",
"B 	c #49494A",
"C 	c #4A494A",
"D 	c #494949",
"E 	c #4A484A",
"F 	c #3D3F40",
"G 	c #000022",
"H 	c #2F2F2F",
"I 	c #464545",
"J 	c #4C4B4B",
"K 	c #4C4B4C",
"L 	c #4B4A4B",
"M 	c #00093D",
"N 	c #1D1D1D",
"O 	c #383737",
"P 	c #464546",
"Q 	c #504E4E",
"R 	c #4E4D4D",
"S 	c #373737",
"T 	c #1F1F1F",
"U 	c #001554",
"V 	c #222222",
"W 	c #353535",
"X 	c #434243",
"Y 	c #434343",
"Z 	c #343434",
"` 	c #00236D",
" .	c #1C1C1C",
"..	c #282828",
"+.	c #323232",
"@.	c #1B1B1B",
"#.	c #00348B",
"$.	c #092869",
"%.	c #0048B4",
"&.	c #0059D9",
". . . . . . . . . . . . . . . . . . ",
"+ + + + + + + + + + + + + + + + + + ",
"@ @ @ @ @ @ # $ % % $ & @ @ @ @ @ @ ",
"* * * * * = - ; > , ' ) ! * * * * * ",
"~ ~ ~ ~ { ] ^ / ( _ : ] < [ ~ ~ ~ ~ ",
"} } } | 1 2 3 4 3 5 6 7 8 9 0 } ~ ~ ",
"~ ~ a ( b c d 6 e f 6 6 g h ( a ~ ~ ",
"~ ~ a i j k l m n o k p o q r a ~ ~ ",
"~ ~ a s t t t t t t t t t - u a ~ ~ ",
"~ ~ a v q w w w w w w w w x y a ~ ~ ",
"~ ~ a z A y v r B C v v D E F a ~ ~ ",
"G G G H I J J K K L K J J - H G G G ",
"M M M N O P Q s R Q s Q / S T M M M ",
"U U U U V W X y s R D Y Z V U U U U ",
"` ` ` ` `  ...+.S S +...@.` ` ` ` ` ",
"#.#.#.#.#.#.$.% % % % $.#.#.#.#.#.#.",
"%.%.%.%.%.%.%.%.%.%.%.%.%.%.%.%.%.%.",
"&.&.&.&.&.&.&.&.&.&.&.&.&.&.&.&.&.&."};
