/* XPM */
static char * window_other_unfocused_xpm[] = {
"18 18 93 2",
"  	c None",
". 	c #C6C6C6",
"+ 	c #A6A6A6",
"@ 	c #888888",
"# 	c #696969",
"$ 	c #444444",
"% 	c #282828",
"& 	c #191919",
"* 	c #686868",
"= 	c #6A6A6A",
"- 	c #4D4D4D",
"; 	c #202020",
"> 	c #313131",
", 	c #3E3D3D",
"' 	c #3D3B3D",
") 	c #3D3D3B",
"! 	c #3D3D3D",
"~ 	c #313133",
"{ 	c #201F1F",
"] 	c #4C4D4D",
"^ 	c #000000",
"/ 	c #232321",
"( 	c #3B3A3A",
"_ 	c #3B3A3B",
": 	c #333333",
"< 	c #2D2D2D",
"[ 	c #2C2D2D",
"} 	c #333331",
"| 	c #3B3B3A",
"1 	c #232320",
"2 	c #1D1D1D",
"3 	c #393838",
"4 	c #363635",
"5 	c #2B2B2B",
"6 	c #2B2C2B",
"7 	c #2C2B2B",
"8 	c #2C2C2C",
"9 	c #2B2B2A",
"0 	c #363636",
"a 	c #3A3838",
"b 	c #1E1D1F",
"c 	c #171716",
"d 	c #373737",
"e 	c #2C2C2E",
"f 	c #2E2C2C",
"g 	c #2C2C2A",
"h 	c #2D2C2C",
"i 	c #2C2C2D",
"j 	c #373738",
"k 	c #353434",
"l 	c #333334",
"m 	c #2E2E2D",
"n 	c #2D2F2D",
"o 	c #2F2D2E",
"p 	c #2E2E2F",
"q 	c #2E2E2E",
"r 	c #2E2F2E",
"s 	c #333133",
"t 	c #343434",
"u 	c #171717",
"v 	c #141414",
"w 	c #373637",
"x 	c #313030",
"y 	c #131412",
"z 	c #343433",
"A 	c #333131",
"B 	c #333134",
"C 	c #121412",
"D 	c #2D2B2C",
"E 	c #333433",
"F 	c #343334",
"G 	c #2B2C2D",
"H 	c #131313",
"I 	c #0F0F0F",
"J 	c #212121",
"K 	c #363535",
"L 	c #363536",
"M 	c #353435",
"N 	c #101010",
"O 	c #040404",
"P 	c #282727",
"Q 	c #383737",
"R 	c #373636",
"S 	c #272727",
"T 	c #161616",
"U 	c #0B0B0B",
"V 	c #181818",
"W 	c #252525",
"X 	c #2F2F2F",
"Y 	c #1C1C1C",
"Z 	c #232323",
"` 	c #0E0E0E",
" .	c #0D0D0D",
". . . . . . . . . . . . . . . . . . ",
"+ + + + + + + + + + + + + + + + + + ",
"@ @ @ @ @ # $ % & & % $ * @ @ @ @ @ ",
"= = = = - ; > , ' ) ! ~ { ] = = = = ",
"^ ^ ^ ^ / ( _ : < [ } ( | 1 ^ ^ ^ ^ ",
"^ ^ ^ 2 3 4 5 6 5 7 8 9 0 a b ^ ^ ^ ",
"^ ^ c < d e f 8 g h 8 8 i j < c ^ ^ ",
"^ ^ c k l m n o p q m r q s t u ^ ^ ",
"^ ^ v w x x x x x x x x x > 0 v ^ ^ ",
"^ ^ y z s A A A A A A A A B t v ^ ^ ",
"^ ^ C D E t z t t t z z t F G H ^ ^ ",
"^ ^ I J > K K L L M L K K > J N ^ ^ ",
"^ ^ O v P > Q w R Q w Q : S T O ^ ^ ",
"^ ^ ^ U V W X t w R t X W V U ^ ^ ^ ",
"^ ^ ^ ^ U v Y Z S S Z Y H U ^ ^ ^ ^ ",
"^ ^ ^ ^ ^ O ` ` ` I I  .O ^ ^ ^ ^ ^ ",
"v v v v v v v v v v v v v v v v v v ",
"8 8 8 8 8 8 8 8 8 8 8 8 8 8 8 8 8 8 "};
