/* XPM */
static char * window_stick_unfocused_xpm[] = {
"18 18 103 2",
"  	c None",
". 	c #C6C6C6",
"+ 	c #A6A6A6",
"@ 	c #888888",
"# 	c #696969",
"$ 	c #444444",
"% 	c #282828",
"& 	c #191919",
"* 	c #686868",
"= 	c #676767",
"- 	c #4D4D4D",
"; 	c #202020",
"> 	c #313131",
", 	c #3E3D3D",
"' 	c #3D3B3D",
") 	c #3D3D3B",
"! 	c #3D3D3D",
"~ 	c #313133",
"{ 	c #201F1F",
"] 	c #4C4D4D",
"^ 	c #2F2F2F",
"/ 	c #333333",
"( 	c #282827",
"_ 	c #3B3A3A",
": 	c #3B3A3B",
"< 	c #2D2D2D",
"[ 	c #2C2D2D",
"} 	c #333331",
"| 	c #3B3B3A",
"1 	c #2B2B29",
"2 	c #101010",
"3 	c #0D0D0D",
"4 	c #212121",
"5 	c #353434",
"6 	c #363635",
"7 	c #2B2B2B",
"8 	c #2B2C2B",
"9 	c #2C2B2B",
"0 	c #2C2C2C",
"a 	c #2B2B2A",
"b 	c #363636",
"c 	c #353333",
"d 	c #222123",
"e 	c #000000",
"f 	c #181818",
"g 	c #353535",
"h 	c #2C2C2E",
"i 	c #2E2C2C",
"j 	c #2C2C2A",
"k 	c #2D2C2C",
"l 	c #2C2C2D",
"m 	c #343334",
"n 	c #171717",
"o 	c #181717",
"p 	c #333334",
"q 	c #2E2E2D",
"r 	c #2D2F2D",
"s 	c #2F2D2E",
"t 	c #2E2E2F",
"u 	c #2E2E2E",
"v 	c #2E2F2E",
"w 	c #333133",
"x 	c #323232",
"y 	c #141414",
"z 	c #373637",
"A 	c #313030",
"B 	c #161616",
"C 	c #151614",
"D 	c #343333",
"E 	c #333131",
"F 	c #333134",
"G 	c #343434",
"H 	c #141614",
"I 	c #2B2A2A",
"J 	c #333433",
"K 	c #343433",
"L 	c #2B2B2C",
"M 	c #151515",
"N 	c #363535",
"O 	c #363536",
"P 	c #353435",
"Q 	c #2F2F30",
"R 	c #060606",
"S 	c #282727",
"T 	c #383737",
"U 	c #373636",
"V 	c #323131",
"W 	c #272727",
"X 	c #090909",
"Y 	c #111111",
"Z 	c #121212",
"` 	c #1B1B1B",
" .	c #252525",
"..	c #2F2E2E",
"+.	c #1D1C1C",
"@.	c #131313",
"#.	c #0C0C0C",
"$.	c #242424",
"%.	c #1C1B1B",
"&.	c #1D1D1D",
"*.	c #1E1E1E",
"=.	c #303030",
"-.	c #424242",
". . . . . . . . . . . . . . . . . . ",
"+ + + + + + + + + + + + + + + + + + ",
"@ @ @ @ @ # $ % & & % $ * @ @ @ @ @ ",
"= = = = - ; > , ' ) ! ~ { ] = = = = ",
"^ ^ / & ( _ : / < [ } _ | 1 ; / ^ ^ ",
"2 2 3 4 5 6 7 8 7 9 0 a b c d 3 2 2 ",
"e e f 0 g h i 0 j k 0 0 l m 9 n e e ",
"e e o 5 p q r s t u q v u w x & e e ",
"e e y z A A A A A A A A A > g B e e ",
"e e C D w E E E E E E E E F G y e e ",
"e e H I J G K G G G K K G m L M e e ",
"e e 2 4 > N N O O P O N N Q 4 2 e e ",
"e e R f S > T z U T z T V W & X e e ",
"Y Y Y Z `  .^ D z U D .. .+.@.Y Y Y ",
"n n n #.M ` ; $.W W  .{ %.B 2 n n n ",
"4 4 4 4 4 y n &.4 ; *.o Z 4 4 4 4 4 ",
"=.=.=.=.=.=.=.=.=.=.=.=.=.=.=.=.=.=.",
"-.-.-.-.-.-.-.-.-.-.-.-.-.-.-.-.-.-."};
