/* XPM */
static char * window_bar_unfocused_xpm[] = {
"1 18 13 1",
" 	c None",
".	c #C6C6C6",
"+	c #A6A6A6",
"@	c #888888",
"#	c #676767",
"$	c #2F2F2F",
"%	c #101010",
"&	c #000000",
"*	c #111111",
"=	c #171717",
"-	c #212121",
";	c #303030",
">	c #424242",
".",
"+",
"@",
"#",
"$",
"%",
"&",
"&",
"&",
"&",
"&",
"&",
"&",
"*",
"=",
"-",
";",
">"};
