/* XPM */
static char * window_close_focused_xpm[] = {
"18 18 105 2",
"  	c None",
". 	c #C6C6C6",
"+ 	c #A6A6A6",
"@ 	c #888888",
"# 	c #898989",
"$ 	c #6A6A6A",
"% 	c #282828",
"& 	c #101010",
"* 	c #5E5E5E",
"= 	c #676767",
"- 	c #181818",
"; 	c #2D2D2D",
"> 	c #444141",
", 	c #413F41",
"' 	c #41413E",
") 	c #424141",
"! 	c #2E2D30",
"~ 	c #191A19",
"{ 	c #2F2F2F",
"] 	c #1A1A18",
"^ 	c #3E3C3C",
"/ 	c #3E3C3E",
"( 	c #303030",
"_ 	c #272727",
": 	c #262727",
"< 	c #30302E",
"[ 	c #3E3E3C",
"} 	c #151515",
"| 	c #3B3939",
"1 	c #363534",
"2 	c #252525",
"3 	c #252625",
"4 	c #262525",
"5 	c #262626",
"6 	c #252524",
"7 	c #363535",
"8 	c #3C3939",
"9 	c #000000",
"0 	c #0A0A0A",
"a 	c #383838",
"b 	c #262628",
"c 	c #282626",
"d 	c #262624",
"e 	c #272626",
"f 	c #262627",
"g 	c #383839",
"h 	c #343232",
"i 	c #303031",
"j 	c #282827",
"k 	c #272927",
"l 	c #292728",
"m 	c #28282B",
"n 	c #282928",
"o 	c #302E30",
"p 	c #323232",
"q 	c #383638",
"r 	c #2D2C2C",
"s 	c #363635",
"t 	c #0A0B09",
"u 	c #313130",
"v 	c #302E2E",
"w 	c #302E31",
"x 	c #323131",
"y 	c #272526",
"z 	c #303130",
"A 	c #313132",
"B 	c #323132",
"C 	c #313131",
"D 	c #323032",
"E 	c #252627",
"F 	c #000022",
"G 	c #2E2D2D",
"H 	c #353434",
"I 	c #353435",
"J 	c #343234",
"K 	c #00093D",
"L 	c #0B0B0B",
"M 	c #1F1E1E",
"N 	c #2E2D2E",
"O 	c #393838",
"P 	c #383636",
"Q 	c #1E1E1E",
"R 	c #0C0C0C",
"S 	c #001554",
"T 	c #071236",
"U 	c #0E0E0E",
"V 	c #1C1C1C",
"W 	c #2B292B",
"X 	c #2B2B2B",
"Y 	c #1B1B1B",
"Z 	c #00236D",
"` 	c #0A0F1F",
" .	c #121212",
"..	c #1A1A1A",
"+.	c #121316",
"@.	c #111B40",
"#.	c #00348B",
"$.	c #092D71",
"%.	c #092869",
"&.	c #0A225A",
"*.	c #0B2461",
"=.	c #09296E",
"-.	c #08307C",
";.	c #0048B4",
">.	c #0059D9",
". . . . . . . . . . . . . . . . . . ",
"+ + + + + + + + + + + + + + + + + + ",
"@ @ @ @ @ # $ % & & % * @ @ @ @ @ @ ",
"= = $ $ $ - ; > , ' ) ! ~ $ $ $ = = ",
"{ { { { ] ^ / ( _ : < ^ [ ~ { { { { ",
"& & & } | 1 2 3 2 4 5 6 7 8 ~ & & & ",
"9 9 0 _ a b c 5 d e 5 5 f g ~ 0 9 9 ",
"9 9 0 h i j k l m % j n % o p 0 9 9 ",
"9 9 0 q r r r r r r r r r ; s 0 9 9 ",
"9 9 t u o v v v v v v v v w x 0 9 9 ",
"9 9 t y z x u p A B u u C D E 0 9 9 ",
"F F F - G H H I I J I H H ; - F F F ",
"K K K L M N O q P O q O ( Q R K K K ",
"S S S T U V W x q P C X Y U S S S S ",
"Z Z Z Z T `  ...Q Q ..+.@.Z Z Z Z Z ",
"#.#.#.#.#.#.$.%.&.*.=.-.#.#.#.#.#.#.",
";.;.;.;.;.;.;.;.;.;.;.;.;.;.;.;.;.;.",
">.>.>.>.>.>.>.>.>.>.>.>.>.>.>.>.>.>."};
