/* XPM */
static char * window_other_focused_xpm[] = {
"18 18 101 2",
"  	c None",
". 	c #C6C6C6",
"+ 	c #A6A6A6",
"@ 	c #888888",
"# 	c #7C7C7C",
"$ 	c #393939",
"% 	c #232323",
"& 	c #7A7A7A",
"* 	c #676767",
"= 	c #6A6A6A",
"- 	c #313131",
"; 	c #454545",
"> 	c #585656",
", 	c #565456",
"' 	c #565653",
") 	c #575656",
"! 	c #464548",
"~ 	c #2D2C2C",
"{ 	c #2F2F2F",
"] 	c #3E3E3D",
"^ 	c #535252",
"/ 	c #535253",
"( 	c #484848",
"_ 	c #404040",
": 	c #3F4040",
"< 	c #484846",
"[ 	c #535352",
"} 	c #3E3D3C",
"| 	c #101010",
"1 	c #292929",
"2 	c #515050",
"3 	c #4D4C4B",
"4 	c #3D3D3D",
"5 	c #3D3F3D",
"6 	c #3F3D3D",
"7 	c #3F3F3F",
"8 	c #3D3D3C",
"9 	c #4D4C4C",
"0 	c #525050",
"a 	c #2B292C",
"b 	c #000000",
"c 	c #0A0A0A",
"d 	c #4E4E4E",
"e 	c #3F3F41",
"f 	c #413F3F",
"g 	c #3F3F3C",
"h 	c #403F3F",
"i 	c #3F3F40",
"j 	c #4E4E50",
"k 	c #4B4A4A",
"l 	c #484849",
"m 	c #414140",
"n 	c #404240",
"o 	c #424041",
"p 	c #414143",
"q 	c #414141",
"r 	c #414241",
"s 	c #484648",
"t 	c #4A4A4A",
"u 	c #4E4D4E",
"v 	c #454444",
"w 	c #4D4D4C",
"x 	c #494948",
"y 	c #484646",
"z 	c #484649",
"A 	c #4A4949",
"B 	c #403D3F",
"C 	c #484948",
"D 	c #49494A",
"E 	c #4A494A",
"F 	c #494949",
"G 	c #4A484A",
"H 	c #3D3F40",
"I 	c #000022",
"J 	c #464545",
"K 	c #4C4B4B",
"L 	c #4C4B4C",
"M 	c #4B4A4B",
"N 	c #00093D",
"O 	c #1D1D1D",
"P 	c #383737",
"Q 	c #464546",
"R 	c #504E4E",
"S 	c #4E4D4D",
"T 	c #373737",
"U 	c #1F1F1F",
"V 	c #001554",
"W 	c #222222",
"X 	c #353535",
"Y 	c #434243",
"Z 	c #434343",
"` 	c #343434",
" .	c #00236D",
"..	c #1C1C1C",
"+.	c #282828",
"@.	c #323232",
"#.	c #1B1B1B",
"$.	c #00348B",
"%.	c #092869",
"&.	c #0048B4",
"*.	c #0059D9",
". . . . . . . . . . . . . . . . . . ",
"+ + + + + + + + + + + + + + + + + + ",
"@ @ @ @ @ @ # $ % % $ & @ @ @ @ @ @ ",
"* * = = = - ; > , ' ) ! ~ = = = * * ",
"{ { { { ] ^ / ( _ : < ^ [ } { { { { ",
"| | | 1 2 3 4 5 4 6 7 8 9 0 a | | | ",
"b b c _ d e f 7 g h 7 7 i j _ c b b ",
"b b c k l m n o p q m r q s t c b b ",
"b b c u v v v v v v v v v ; w c b b ",
"b b c x s y y y y y y y y z A c b b ",
"b b c B C A x t D E x x F G H c b b ",
"I I I { J K K L L M L K K ; { I I I ",
"N N N O P Q R u S R u R ( T U N N N ",
"V V V V W X Y A u S F Z ` W V V V V ",
" . . . . ...+.@.T T @.+.#. . . . . .",
"$.$.$.$.$.$.%.% % % % %.$.$.$.$.$.$.",
"&.&.&.&.&.&.&.&.&.&.&.&.&.&.&.&.&.&.",
"*.*.*.*.*.*.*.*.*.*.*.*.*.*.*.*.*.*."};
