/* XPM */
static char * window_stick_focused_xpm[] = {
"18 18 111 2",
"  	c None",
". 	c #C6C6C6",
"+ 	c #A6A6A6",
"@ 	c #888888",
"# 	c #656565",
"$ 	c #393939",
"% 	c #232323",
"& 	c #676767",
"* 	c #6A6A6A",
"= 	c #515050",
"- 	c #2E2E2E",
"; 	c #454545",
"> 	c #585656",
", 	c #565456",
"' 	c #565653",
") 	c #575656",
"! 	c #464548",
"~ 	c #333232",
"{ 	c #2F2F2F",
"] 	c #292929",
"^ 	c #32322F",
"/ 	c #535252",
"( 	c #535253",
"_ 	c #484848",
": 	c #404040",
"< 	c #3F4040",
"[ 	c #484846",
"} 	c #535352",
"| 	c #32312E",
"1 	c #101010",
"2 	c #4D4C4B",
"3 	c #3D3D3D",
"4 	c #3D3F3D",
"5 	c #3F3D3D",
"6 	c #3F3F3F",
"7 	c #3D3D3C",
"8 	c #4D4C4C",
"9 	c #525050",
"0 	c #2B292C",
"a 	c #000000",
"b 	c #202020",
"c 	c #4E4E4E",
"d 	c #3F3F41",
"e 	c #413F3F",
"f 	c #3F3F3C",
"g 	c #403F3F",
"h 	c #3F3F40",
"i 	c #4E4E50",
"j 	c #20201F",
"k 	c #4B4A4A",
"l 	c #484849",
"m 	c #414140",
"n 	c #404240",
"o 	c #424041",
"p 	c #414143",
"q 	c #414141",
"r 	c #414241",
"s 	c #484648",
"t 	c #4A4A4A",
"u 	c #1C1C1C",
"v 	c #4E4D4E",
"w 	c #454444",
"x 	c #4D4D4C",
"y 	c #1D1D1D",
"z 	c #1B1D1A",
"A 	c #494948",
"B 	c #484646",
"C 	c #484649",
"D 	c #4A4949",
"E 	c #1A1C19",
"F 	c #403D3F",
"G 	c #484948",
"H 	c #49494A",
"I 	c #4A494A",
"J 	c #494949",
"K 	c #4A484A",
"L 	c #3D3F40",
"M 	c #1B1B1B",
"N 	c #000022",
"O 	c #151515",
"P 	c #464545",
"Q 	c #4C4B4B",
"R 	c #4C4B4C",
"S 	c #4B4A4B",
"T 	c #161616",
"U 	c #00093D",
"V 	c #0B0E19",
"W 	c #383737",
"X 	c #464546",
"Y 	c #504E4E",
"Z 	c #4E4D4D",
"` 	c #373737",
" .	c #1F1F1F",
"..	c #001554",
"+.	c #222222",
"@.	c #353535",
"#.	c #434243",
"$.	c #434343",
"%.	c #343434",
"&.	c #00236D",
"*.	c #282828",
"=.	c #323232",
"-.	c #00348B",
";.	c #272C46",
">.	c #1C202F",
",.	c #1D1E27",
"'.	c #1D1E26",
").	c #1C1F2D",
"!.	c #262C48",
"~.	c #0048B4",
"{.	c #0059D9",
". . . . . . . . . . . . . . . . . . ",
"+ + + + + + + + + + + + + + + + + + ",
"@ @ @ @ @ @ # $ % % $ & @ @ @ @ @ @ ",
"& & * * = - ; > , ' ) ! ~ = * * & & ",
"{ { { ] ^ / ( _ : < [ / } | ] { { { ",
"1 1 1 ] = 2 3 4 3 5 6 7 8 9 0 1 1 1 ",
"a a b : c d e 6 f g 6 6 h i : b a a ",
"a a j k l m n o p q m r q s t b a a ",
"a a u v w w w w w w w w w ; x y a a ",
"a a z A s B B B B B B B B C D u a a ",
"a a E F G D A t H I A A J K L M a a ",
"N N O { P Q Q R R S R Q Q ; { T N N ",
"U U V y W X Y v Z Y v Y _ `  .V U U ",
"......1 +.@.#.D v Z J $.%.+.1 ......",
"&.&.&.&.1 u *.=.` ` =.*.M &.&.&.&.&.",
"-.-.-.-.-.-.;.>.,.'.).!.-.-.-.-.-.-.",
"~.~.~.~.~.~.~.~.~.~.~.~.~.~.~.~.~.~.",
"{.{.{.{.{.{.{.{.{.{.{.{.{.{.{.{.{.{."};
