/* XPM */
static char * window_other_unfocused_xpm[] = {
"18 18 96 2",
"  	c None",
". 	c #C6C6C6",
"+ 	c #A6A6A6",
"@ 	c #888888",
"# 	c #696969",
"$ 	c #444444",
"% 	c #282828",
"& 	c #191919",
"* 	c #686868",
"= 	c #676767",
"- 	c #4D4D4D",
"; 	c #202020",
"> 	c #313131",
", 	c #3E3D3D",
"' 	c #3D3B3D",
") 	c #3D3D3B",
"! 	c #3D3D3D",
"~ 	c #313133",
"{ 	c #201F1F",
"] 	c #4C4D4D",
"^ 	c #2F2F2F",
"/ 	c #232321",
"( 	c #3B3A3A",
"_ 	c #3B3A3B",
": 	c #333333",
"< 	c #2D2D2D",
"[ 	c #2C2D2D",
"} 	c #333331",
"| 	c #3B3B3A",
"1 	c #232320",
"2 	c #101010",
"3 	c #1D1D1D",
"4 	c #393838",
"5 	c #363635",
"6 	c #2B2B2B",
"7 	c #2B2C2B",
"8 	c #2C2B2B",
"9 	c #2C2C2C",
"0 	c #2B2B2A",
"a 	c #363636",
"b 	c #3A3838",
"c 	c #1E1D1F",
"d 	c #000000",
"e 	c #171716",
"f 	c #373737",
"g 	c #2C2C2E",
"h 	c #2E2C2C",
"i 	c #2C2C2A",
"j 	c #2D2C2C",
"k 	c #2C2C2D",
"l 	c #373738",
"m 	c #353434",
"n 	c #333334",
"o 	c #2E2E2D",
"p 	c #2D2F2D",
"q 	c #2F2D2E",
"r 	c #2E2E2F",
"s 	c #2E2E2E",
"t 	c #2E2F2E",
"u 	c #333133",
"v 	c #343434",
"w 	c #171717",
"x 	c #141414",
"y 	c #373637",
"z 	c #313030",
"A 	c #131412",
"B 	c #343433",
"C 	c #333131",
"D 	c #333134",
"E 	c #121412",
"F 	c #2D2B2C",
"G 	c #333433",
"H 	c #343334",
"I 	c #2B2C2D",
"J 	c #131313",
"K 	c #0F0F0F",
"L 	c #212121",
"M 	c #363535",
"N 	c #363536",
"O 	c #353435",
"P 	c #040404",
"Q 	c #151515",
"R 	c #282727",
"S 	c #383737",
"T 	c #373636",
"U 	c #272727",
"V 	c #161616",
"W 	c #111111",
"X 	c #0C0C0C",
"Y 	c #252525",
"Z 	c #0D0D0D",
"` 	c #1E1E1E",
" .	c #232323",
"..	c #1F1F1F",
"+.	c #303030",
"@.	c #424242",
". . . . . . . . . . . . . . . . . . ",
"+ + + + + + + + + + + + + + + + + + ",
"@ @ @ @ @ # $ % & & % $ * @ @ @ @ @ ",
"= = = = - ; > , ' ) ! ~ { ] = = = = ",
"^ ^ ^ ^ / ( _ : < [ } ( | 1 ^ ^ ^ ^ ",
"2 2 2 3 4 5 6 7 6 8 9 0 a b c 2 2 2 ",
"d d e < f g h 9 i j 9 9 k l < e d d ",
"d d e m n o p q r s o t s u v w d d ",
"d d x y z z z z z z z z z > a x d d ",
"d d A B u C C C C C C C C D v x d d ",
"d d E F G v B v v v B B v H I J d d ",
"d d K L > M M N N O N M M > L 2 d d ",
"d d P Q R > S y T S y S : U V P d d ",
"W W W X & Y ^ : N M : ^ Y & X W W W ",
"w w w w Z V `  .U U  ...V Z w w w w ",
"L L L L L L J x J Q Q J L L L L L L ",
"+.+.+.+.+.+.+.+.+.+.+.+.+.+.+.+.+.+.",
"@.@.@.@.@.@.@.@.@.@.@.@.@.@.@.@.@.@."};
