/* XPM */
static char * window_bar_focused_xpm[] = {
"1 18 15 1",
" 	c None",
".	c #C6C6C6",
"+	c #A6A6A6",
"@	c #888888",
"#	c #676767",
"$	c #2F2F2F",
"%	c #101010",
"&	c #000000",
"*	c #000022",
"=	c #00093D",
"-	c #001554",
";	c #00236D",
">	c #00348B",
",	c #0048B4",
"'	c #0059D9",
".",
"+",
"@",
"#",
"$",
"%",
"&",
"&",
"&",
"&",
"&",
"*",
"=",
"-",
";",
">",
",",
"'"};
