/* XPM */
static char * window_close_unfocused_xpm[] = {
"18 18 86 1",
" 	c None",
".	c #C6C6C6",
"+	c #A6A6A6",
"@	c #888888",
"#	c #676767",
"$	c #3C3C3C",
"%	c #1C1C1C",
"&	c #0B0B0B",
"*	c #474747",
"=	c #111111",
"-	c #202020",
";	c #302E2E",
">	c #2E2C2E",
",	c #2E2E2C",
"'	c #2F2E2E",
")	c #202022",
"!	c #111010",
"~	c #464746",
"{	c #2F2F2F",
"]	c #121211",
"^	c #2C2A2A",
"/	c #2C2A2C",
"(	c #222222",
"_	c #1B1C1C",
":	c #222220",
"<	c #2C2C2A",
"[	c #121210",
"}	c #101010",
"|	c #0F0F0F",
"1	c #2A2828",
"2	c #262525",
"3	c #1A1A1A",
"4	c #1A1B1A",
"5	c #1B1A1A",
"6	c #1B1B1B",
"7	c #1A1A19",
"8	c #100F10",
"9	c #000000",
"0	c #080808",
"a	c #282828",
"b	c #1B1B1C",
"c	c #1C1B1B",
"d	c #1B1B19",
"e	c #252323",
"f	c #222223",
"g	c #1C1D1C",
"h	c #1D1C1C",
"i	c #1C1C1E",
"j	c #222022",
"k	c #232323",
"l	c #282628",
"m	c #201F1F",
"n	c #262625",
"o	c #232322",
"p	c #222020",
"q	c #222023",
"r	c #1C1A1B",
"s	c #222322",
"t	c #232223",
"u	c #1A1B1C",
"v	c #070707",
"w	c #121212",
"x	c #1F1F1F",
"y	c #252525",
"z	c #252325",
"A	c #040404",
"B	c #0D0D0D",
"C	c #161515",
"D	c #272627",
"E	c #282626",
"F	c #272727",
"G	c #151515",
"H	c #020202",
"I	c #0A0A0A",
"J	c #100F0F",
"K	c #1E1D1E",
"L	c #272527",
"M	c #272526",
"N	c #1E1E1E",
"O	c #171717",
"P	c #0E0E0E",
"Q	c #131313",
"R	c #141314",
"S	c #212121",
"T	c #303030",
"U	c #424242",
"..................",
"++++++++++++++++++",
"@@@@@#$%&&%$#@@@@@",
"####*=-;>,')!~####",
"{{{{]^/(%_:^<[{{{{",
"}}}|12343567218}}}",
"990%abc6dc66ba%099",
"99&ef%ghi%%g%jk&99",
"99&lmmmmmmmmm-n&99",
"99&ojppppppppqk&99",
"990rskokkkooktu099",
"99vwxyyyyzyyy-=v99",
"99ABC-DlEalF(G&H99",
"===IJCKkLMkNG}I===",
"OOOOP}QROOGQ=}OOOO",
"SSSSSS=wQGQwSSSSSS",
"TTTTTTTTTTTTTTTTTT",
"UUUUUUUUUUUUUUUUUU"};
